<svg width="72" height="66" viewBox="0 0 72 66" fill="none" xmlns="http://www.w3.org/2000/svg">
<path d="M38.1333 43.8346C37.9293 43.9506 37.6983 44.0207 37.4594 44.032L29.7618 44.3979C27.577 44.5009 25.6976 44.291 24.0141 43.7588C20.3306 42.5961 17.2394 40.1729 15.3123 36.932L8.96516 26.2674C8.23237 25.0367 8.39664 23.4649 9.36943 22.3552L18.0847 12.443C18.5991 11.8491 19.3189 11.4357 20.1055 11.2796L33.1499 8.65505C34.6089 8.35935 36.0824 8.98976 36.8126 10.2198L43.1643 20.8923C45.0904 24.1275 45.727 27.9627 44.9587 31.6917C44.6059 33.4023 43.8708 35.1172 42.7137 36.9349L38.636 43.3527C38.5101 43.553 38.3365 43.717 38.1333 43.8346" fill="url(#paint0_linear_4527_7212)"/>
<g filter="url(#filter0_f_4527_7212)">
<path d="M34.7293 37.4806C34.5909 37.5593 34.4366 37.6108 34.2793 37.6265L29.2105 38.1333C27.7719 38.2766 26.5457 38.2167 25.4603 37.9519C23.0853 37.3734 21.1471 35.9997 20.0042 34.0815L16.2397 27.7697C15.805 27.0414 15.9724 26.0707 16.6532 25.3541L22.7514 18.9516C23.1116 18.5683 23.5999 18.2882 24.1224 18.1636L32.7877 16.0746C33.757 15.8397 34.7008 16.1725 35.1338 16.9006L38.9011 23.217C40.0435 25.1318 40.3164 27.462 39.6708 29.7786C39.3744 30.8413 38.8268 31.9206 37.9982 33.0785L35.0776 37.1665C34.9873 37.294 34.8671 37.401 34.7293 37.4806" fill="#239BA8" fill-opacity="0.5"/>
</g>
<foreignObject x="-0.66748" y="-11.876" width="95.1094" height="99.4424"><div xmlns="http://www.w3.org/1999/xhtml" style="backdrop-filter:blur(12px);clip-path:url(#bgblur_0_4527_7212_clip_path);height:100%;width:100%"></div></foreignObject><g data-figma-bg-blur-radius="24">
<mask id="path-3-outside-1_4527_7212" maskUnits="userSpaceOnUse" x="19.702" y="8.8778" width="52.6155" height="58.0287" fill="black">
<rect fill="white" x="19.702" y="8.8778" width="52.6155" height="58.0287"/>
<path d="M42.2813 62.5478C41.9723 62.5016 41.6744 62.3852 41.4181 62.2007L33.159 56.2577C30.8156 54.5699 29.0525 52.8057 27.7648 50.8651C24.9458 46.6206 23.8062 41.5433 24.5613 36.5665L27.0403 20.1853C27.326 18.2946 28.8271 16.784 30.7717 16.4217L48.1679 13.2068C49.2022 13.0076 50.2956 13.1664 51.2402 13.6495L66.934 21.6219C68.6912 22.5114 69.6788 24.3823 69.391 26.2702L66.9101 42.6635C66.1587 47.6334 63.5675 52.1718 59.6154 55.4443C57.8021 56.9453 55.5903 58.1366 52.8558 59.0886L43.2085 62.4565C42.9089 62.5626 42.5906 62.5917 42.2813 62.5478"/>
</mask>
<path d="M42.2813 62.5478C41.9723 62.5016 41.6744 62.3852 41.4181 62.2007L33.159 56.2577C30.8156 54.5699 29.0525 52.8057 27.7648 50.8651C24.9458 46.6206 23.8062 41.5433 24.5613 36.5665L27.0403 20.1853C27.326 18.2946 28.8271 16.784 30.7717 16.4217L48.1679 13.2068C49.2022 13.0076 50.2956 13.1664 51.2402 13.6495L66.934 21.6219C68.6912 22.5114 69.6788 24.3823 69.391 26.2702L66.9101 42.6635C66.1587 47.6334 63.5675 52.1718 59.6154 55.4443C57.8021 56.9453 55.5903 58.1366 52.8558 59.0886L43.2085 62.4565C42.9089 62.5626 42.5906 62.5917 42.2813 62.5478" fill="#239BA8" fill-opacity="0.35"/>
<path d="M42.1253 63.5356C42.6715 63.6174 43.1841 63.2415 43.2702 62.6959C43.3564 62.1504 42.9834 61.6419 42.4372 61.5601L42.2813 62.5478L42.1253 63.5356ZM41.4181 62.2007L42.0079 61.3892L42.0079 61.3891L41.4181 62.2007ZM33.159 56.2577L32.5688 57.0691L32.5692 57.0693L33.159 56.2577ZM27.7648 50.8651L28.6009 50.3093L28.6007 50.309L27.7648 50.8651ZM24.5613 36.5665L25.5512 36.7086L25.5513 36.7082L24.5613 36.5665ZM27.0403 20.1853L28.0302 20.327L28.0303 20.3268L27.0403 20.1853ZM30.7717 16.4217L30.5965 15.4396L30.5951 15.4399L30.7717 16.4217ZM48.1679 13.2068L48.343 14.1888L48.3504 14.1874L48.1679 13.2068ZM51.2402 13.6495L50.778 14.5391L50.7805 14.5403L51.2402 13.6495ZM66.934 21.6219L66.4743 22.5127L66.4756 22.5133L66.934 21.6219ZM69.391 26.2702L68.4012 26.1273L68.401 26.1284L69.391 26.2702ZM66.9101 42.6635L65.9201 42.5217L65.9201 42.5219L66.9101 42.6635ZM59.6153 55.4443L60.2512 56.211L60.2513 56.2109L59.6153 55.4443ZM52.8558 59.0886L52.5323 58.1459L52.5315 58.1462L52.8558 59.0886ZM43.2085 62.4565L42.8842 61.514L42.8798 61.5155L43.2085 62.4565ZM42.4295 61.5589C41.8826 61.4814 41.373 61.8613 41.2911 62.4075C41.2092 62.9536 41.5862 63.4592 42.133 63.5367L42.2813 62.5478L42.4295 61.5589ZM42.2813 62.5478L42.4372 61.5601C42.2769 61.5361 42.1294 61.4766 42.0079 61.3892L41.4181 62.2007L40.8283 63.0123C41.2194 63.2937 41.6677 63.4671 42.1253 63.5356L42.2813 62.5478ZM41.4181 62.2007L42.0079 61.3891L33.7487 55.4461L33.159 56.2577L32.5692 57.0693L40.8284 63.0123L41.4181 62.2007ZM33.159 56.2577L33.7491 55.4464C31.4806 53.8126 29.8094 52.1304 28.6009 50.3093L27.7648 50.8651L26.9287 51.4208C28.2957 53.481 30.1506 55.3273 32.5688 57.0691L33.159 56.2577ZM27.7648 50.8651L28.6007 50.309C25.9152 46.2655 24.8339 41.4362 25.5512 36.7086L24.5613 36.5665L23.5714 36.4244C22.7785 41.6503 23.9763 46.9756 26.9289 51.4211L27.7648 50.8651ZM24.5613 36.5665L25.5513 36.7082L28.0302 20.327L27.0403 20.1853L26.0503 20.0435L23.5714 36.4247L24.5613 36.5665ZM27.0403 20.1853L28.0303 20.3268C28.249 18.8797 29.4058 17.6909 30.9482 17.4035L30.7717 16.4217L30.5951 15.4399C28.2484 15.8772 26.403 17.7096 26.0503 20.0437L27.0403 20.1853ZM30.7717 16.4217L30.9468 17.4037L48.343 14.1888L48.1679 13.2068L47.9928 12.2247L30.5965 15.4396L30.7717 16.4217ZM48.1679 13.2068L48.3504 14.1874C49.161 14.0314 50.0279 14.1554 50.778 14.5391L51.2402 13.6495L51.7023 12.76C50.5634 12.1775 49.2434 11.9839 47.9854 12.2261L48.1679 13.2068ZM51.2402 13.6495L50.7805 14.5403L66.4743 22.5127L66.934 21.6219L67.3937 20.7311L51.6999 12.7588L51.2402 13.6495ZM66.934 21.6219L66.4756 22.5133C67.8673 23.2178 68.6215 24.6823 68.4012 26.1273L69.391 26.2702L70.3808 26.413C70.7361 24.0823 69.515 21.805 67.3924 20.7305L66.934 21.6219ZM69.391 26.2702L68.401 26.1284L65.9201 42.5217L66.9101 42.6635L67.9001 42.8052L70.3809 26.4119L69.391 26.2702ZM66.9101 42.6635L65.9201 42.5219C65.2063 47.2429 62.7442 51.5603 58.9794 54.6778L59.6153 55.4443L60.2513 56.2109C64.3908 52.7832 67.111 48.0238 67.9001 42.8051L66.9101 42.6635ZM59.6153 55.4443L58.9795 54.6777C57.278 56.0861 55.1789 57.2244 52.5323 58.1459L52.8558 59.0886L53.1792 60.0314C56.0017 59.0487 58.3262 57.8045 60.2512 56.211L59.6153 55.4443ZM52.8558 59.0886L52.5315 58.1462L42.8842 61.514L43.2085 62.4565L43.5328 63.399L53.18 60.0311L52.8558 59.0886ZM43.2085 62.4565L42.8798 61.5155C42.7382 61.5657 42.5839 61.5808 42.4295 61.5589L42.2813 62.5478L42.133 63.5367C42.5973 63.6025 43.0796 63.5595 43.5372 63.3974L43.2085 62.4565Z" fill="url(#paint1_linear_4527_7212)" mask="url(#path-3-outside-1_4527_7212)"/>
</g>
<foreignObject x="22.6553" y="16.6458" width="49.1162" height="41.7058"><div xmlns="http://www.w3.org/1999/xhtml" style="backdrop-filter:blur(7.5px);clip-path:url(#bgblur_1_4527_7212_clip_path);height:100%;width:100%"></div></foreignObject><g filter="url(#filter2_d_4527_7212)" data-figma-bg-blur-radius="15">
<path d="M43.3549 43.3311C42.8718 43.2613 42.4163 43.0171 42.1 42.608L38.0321 37.3405C37.4046 36.523 37.5783 35.3745 38.4222 34.7724C39.2665 34.1679 40.4617 34.3395 41.0921 35.155L44.0194 38.9434L53.7227 32.0069C54.5695 31.4027 55.7648 31.5743 56.3926 32.3894C57.0226 33.2073 56.8486 34.3582 56.0051 34.9578L44.77 42.9905C44.3464 43.2938 43.8379 43.401 43.3549 43.3311Z" fill="url(#paint2_linear_4527_7212)"/>
<path d="M53.7802 32.0883C54.5832 31.5154 55.7181 31.6784 56.3131 32.4509C56.9088 33.2243 56.7436 34.3101 55.9469 34.8764L44.7121 42.9091C44.3109 43.1963 43.8288 43.2988 43.3698 43.2324C42.9106 43.166 42.4785 42.9339 42.1791 42.5465L38.112 37.2797C37.5187 36.5066 37.683 35.4223 38.4803 34.8534C39.2805 34.2807 40.4146 34.4432 41.0123 35.2159L43.9396 39.0046L43.9987 39.0807L44.0778 39.0244L53.7802 32.0883Z" stroke="url(#paint3_linear_4527_7212)" stroke-opacity="0.5" stroke-width="0.2"/>
</g>
<defs>
<filter id="filter0_f_4527_7212" x="0" y="0" width="56.0132" height="54.209" filterUnits="userSpaceOnUse" color-interpolation-filters="sRGB">
<feFlood flood-opacity="0" result="BackgroundImageFix"/>
<feBlend mode="normal" in="SourceGraphic" in2="BackgroundImageFix" result="shape"/>
<feGaussianBlur stdDeviation="8" result="effect1_foregroundBlur_4527_7212"/>
</filter>
<clipPath id="bgblur_0_4527_7212_clip_path" transform="translate(0.66748 11.876)"><path d="M42.2813 62.5478C41.9723 62.5016 41.6744 62.3852 41.4181 62.2007L33.159 56.2577C30.8156 54.5699 29.0525 52.8057 27.7648 50.8651C24.9458 46.6206 23.8062 41.5433 24.5613 36.5665L27.0403 20.1853C27.326 18.2946 28.8271 16.784 30.7717 16.4217L48.1679 13.2068C49.2022 13.0076 50.2956 13.1664 51.2402 13.6495L66.934 21.6219C68.6912 22.5114 69.6788 24.3823 69.391 26.2702L66.9101 42.6635C66.1587 47.6334 63.5675 52.1718 59.6154 55.4443C57.8021 56.9453 55.5903 58.1366 52.8558 59.0886L43.2085 62.4565C42.9089 62.5626 42.5906 62.5917 42.2813 62.5478"/>
</clipPath><filter id="filter2_d_4527_7212" x="22.6553" y="16.6458" width="49.1162" height="41.7058" filterUnits="userSpaceOnUse" color-interpolation-filters="sRGB">
<feFlood flood-opacity="0" result="BackgroundImageFix"/>
<feColorMatrix in="SourceAlpha" type="matrix" values="0 0 0 0 0 0 0 0 0 0 0 0 0 0 0 0 0 0 127 0" result="hardAlpha"/>
<feOffset dx="5" dy="5"/>
<feGaussianBlur stdDeviation="5"/>
<feColorMatrix type="matrix" values="0 0 0 0 0.137255 0 0 0 0 0.607843 0 0 0 0 0.658824 0 0 0 0.78 0"/>
<feBlend mode="normal" in2="BackgroundImageFix" result="effect1_dropShadow_4527_7212"/>
<feBlend mode="normal" in="SourceGraphic" in2="effect1_dropShadow_4527_7212" result="shape"/>
</filter>
<clipPath id="bgblur_1_4527_7212_clip_path" transform="translate(-22.6553 -16.6458)"><path d="M43.3549 43.3311C42.8718 43.2613 42.4163 43.0171 42.1 42.608L38.0321 37.3405C37.4046 36.523 37.5783 35.3745 38.4222 34.7724C39.2665 34.1679 40.4617 34.3395 41.0921 35.155L44.0194 38.9434L53.7227 32.0069C54.5695 31.4027 55.7648 31.5743 56.3926 32.3894C57.0226 33.2073 56.8486 34.3582 56.0051 34.9578L44.77 42.9905C44.3464 43.2938 43.8379 43.401 43.3549 43.3311Z"/>
</clipPath><linearGradient id="paint0_linear_4527_7212" x1="33.0774" y1="3.69159" x2="23.473" y2="40.0842" gradientUnits="userSpaceOnUse">
<stop stop-color="#2CB1BF"/>
<stop offset="1" stop-color="#239BA8"/>
</linearGradient>
<linearGradient id="paint1_linear_4527_7212" x1="34.4911" y1="16.7714" x2="61.2788" y2="55.749" gradientUnits="userSpaceOnUse">
<stop stop-color="white" stop-opacity="0.25"/>
<stop offset="1" stop-color="white" stop-opacity="0"/>
</linearGradient>
<linearGradient id="paint2_linear_4527_7212" x1="55.3655" y1="34.1249" x2="34.8816" y2="31.8371" gradientUnits="userSpaceOnUse">
<stop stop-color="white"/>
<stop offset="1" stop-color="white" stop-opacity="0.2"/>
</linearGradient>
<linearGradient id="paint3_linear_4527_7212" x1="40.0192" y1="33.9065" x2="55.5127" y2="36.4752" gradientUnits="userSpaceOnUse">
<stop stop-color="white"/>
<stop offset="1" stop-color="white" stop-opacity="0"/>
</linearGradient>
</defs>
</svg>
